<?xml version="1.0" encoding="utf-8"?>
<!-- Generator: Adobe Illustrator 15.0.0, SVG Export Plug-In . SVG Version: 6.00 Build 0)  -->
<!DOCTYPE svg PUBLIC "-//W3C//DTD SVG 1.1//EN" "http://www.w3.org/Graphics/SVG/1.1/DTD/svg11.dtd">
<svg version="1.1" id="Layer_1" xmlns="http://www.w3.org/2000/svg" xmlns:xlink="http://www.w3.org/1999/xlink" x="0px" y="0px"
	 width="500px" height="500px" viewBox="0 0 500 500" enable-background="new 0 0 500 500" xml:space="preserve">
<path fill="#FFFFFF" d="M255.92,322.08l83.96,76.43c48.83-43.09,105.48-101.09,136.81-160.79l-97.97-107.63l104.25,94.9
	c25.1-54.51,27.26-109.66-18.54-155.45C361.65-33.27,250.09,98,249.99,98.12c-0.08-0.09-73.88-86.93-156.73-64.07l220.47,242.21
	L62.63,47.69c-9.04,5.65-18.09,12.84-27.08,21.83c-10.12,10.12-17.88,20.7-23.59,31.63l182.99,201.04L2.36,126.88
	c-35.04,148.78,247.63,342.91,247.63,342.91s36.62-25.15,81.86-64.28L255.92,322.08z"/>
</svg>
