<?xml version="1.0" encoding="utf-8"?>
<!-- Generator: Adobe Illustrator 15.0.0, SVG Export Plug-In . SVG Version: 6.00 Build 0)  -->
<!DOCTYPE svg PUBLIC "-//W3C//DTD SVG 1.1//EN" "http://www.w3.org/Graphics/SVG/1.1/DTD/svg11.dtd">
<svg version="1.1" id="Layer_1" xmlns="http://www.w3.org/2000/svg" xmlns:xlink="http://www.w3.org/1999/xlink" x="0px" y="0px"
	 width="500px" height="500px" viewBox="0 0 500 500" enable-background="new 0 0 500 500" xml:space="preserve">
<polygon points="-1576,-138.67 -1637,-272 -1515,-272 "/>
<path fill="#FFFFFF" d="M250,6.11L250,6.11C133.95,6.7,21.38,118.33,40.53,235.09c7.88,48.07,17.89,82.07,30.37,106.05
	c-3.15,2.09-7.61,6.24-8.63,10.13c-12.79,48.54,49.38,96.5,75.39,86.49c4.33-1.58,36.97,8.77,36.97,41.13c0,0,10.8,15,75.38,15h0
	c64.58,0,75.38-15,75.38-15c0-32.36,32.63-42.71,36.97-41.13c26,10,88.17-37.95,75.39-86.49c-1.03-3.9-5.49-8.04-8.63-10.13
	c12.48-23.98,22.49-57.97,30.37-106.05C478.62,118.33,366.05,6.7,250,6.11z M128.96,351.03C108.5,334.95,95.6,263.54,121,246.8
	c24.78-16.33,74.09-17.72,94.55-1.64s14.21,44.87-4.9,68.54C186.65,343.43,149.42,367.11,128.96,351.03z M279.5,418.57
	c-7.89,3.2-20.87-1.96-29.5-26.63c-8.64,24.67-21.61,29.82-29.5,26.63c-8.16-3.31-7.8-27.81,0.81-54.73
	c8-25.02,21.41-43.08,28.68-43.12c7.28-0.04,20.68,18.1,28.69,43.12C287.3,390.76,287.66,415.27,279.5,418.57z M371.04,349.23
	c-20.46,16.08-57.7-7.6-81.7-37.33c-19.11-23.67-25.35-52.46-4.89-68.54S354.21,228.68,379,245
	C404.4,261.74,391.5,333.15,371.04,349.23z"/>
</svg>
