<?xml version="1.0" encoding="utf-8"?>
<!-- Generator: Adobe Illustrator 15.0.0, SVG Export Plug-In . SVG Version: 6.00 Build 0)  -->
<!DOCTYPE svg PUBLIC "-//W3C//DTD SVG 1.1//EN" "http://www.w3.org/Graphics/SVG/1.1/DTD/svg11.dtd">
<svg version="1.1" id="Layer_1" xmlns="http://www.w3.org/2000/svg" xmlns:xlink="http://www.w3.org/1999/xlink" x="0px" y="0px"
	 width="500px" height="500px" viewBox="0 0 500 500" enable-background="new 0 0 500 500" xml:space="preserve">
<path fill="#FFFFFF" d="M339.96,187.93l-23.98,19.28l-12.68-23.44l-27.54-50.92l-77.2,107.38c16.05,0.38,31.14,4.07,40.36,11.31
	c20.46,16.08,14.21,44.87-4.9,68.54c-24,29.73-61.24,53.41-81.7,37.33c-20.46-16.08-33.36-87.49-7.96-104.23
	c10.8-7.11,26.24-11.39,41.93-12.62l77.18-147.92l11.34-21.73l16.92,21.28l32.65,41.07l70.53-79.39
	c-35.63-25.54-78.35-41.16-121.55-41.38C157.32,13.08,44.74,124.71,63.89,241.47c7.88,48.07,17.89,82.07,30.37,106.05
	c-3.15,2.09-7.61,6.24-8.63,10.13c-12.79,48.54,49.38,96.5,75.39,86.49c4.33-1.58,36.97,8.77,36.97,41.13c0,0,10.8,15,75.38,15
	s75.38-15,75.38-15c0-32.36,32.63-42.71,36.97-41.13c26,10,88.17-37.95,75.39-86.49c-1.03-3.9-5.49-8.04-8.63-10.13
	c12.48-23.98,22.49-57.97,30.37-106.05c8.16-49.77-7.62-98.61-37.4-138.31L339.96,187.93z M302.86,424.95
	c-7.89,3.2-20.87-1.96-29.5-26.63c-8.64,24.67-21.61,29.82-29.5,26.63c-8.16-3.31-7.8-27.81,0.82-54.73
	c8-25.02,21.41-43.08,28.68-43.12c7.28-0.04,20.68,18.1,28.69,43.12C310.66,397.14,311.03,421.65,302.86,424.95z M394.41,355.61
	c-20.46,16.08-57.7-7.6-81.7-37.33c-19.11-23.67-25.35-52.46-4.89-68.54s69.76-14.69,94.55,1.64
	C427.76,268.12,414.87,339.53,394.41,355.61z"/>
</svg>
